<svg width="31" height="30" viewBox="0 0 31 30" fill="none" xmlns="http://www.w3.org/2000/svg">
<path d="M27.5459 24.13C29.5553 21.5258 30.6452 18.3292 30.6452 15.04C30.6452 11.7507 29.5553 8.55414 27.5459 5.94997L27.4759 5.86997C27.1659 5.46997 26.8359 5.08997 26.4759 4.72997L26.3559 4.59997C25.9832 4.17689 25.5859 3.7762 25.1659 3.39997L24.8959 3.19997C24.5759 2.94997 24.2559 2.70997 23.8959 2.48997C23.5359 2.26997 23.4859 2.22997 23.2759 2.10997C23.0659 1.98997 22.8059 1.82997 22.5559 1.69997L21.8359 1.34997C21.6059 1.24997 21.3659 1.13997 21.1159 1.04997C20.8659 0.959973 20.6259 0.859973 20.3759 0.779973C20.1259 0.699973 19.8359 0.609973 19.5659 0.539973C19.2959 0.469973 19.0959 0.409973 18.8559 0.359973C18.6159 0.309973 18.1959 0.229973 17.8559 0.179973C17.5159 0.129973 17.4659 0.109973 17.2659 0.0899728C16.1826 -0.0299909 15.0893 -0.0299909 14.0059 0.0899728C13.8059 0.0899728 13.6159 0.149973 13.4159 0.179973C13.2159 0.209973 12.7459 0.279973 12.4159 0.359973C12.0859 0.439973 11.9359 0.469973 11.7059 0.539973C11.4759 0.609973 11.1659 0.689973 10.8959 0.779973C10.6259 0.869973 10.3959 0.949973 10.1559 1.04997C9.91593 1.14997 9.66593 1.24997 9.43593 1.34997L8.71593 1.69997C8.46593 1.82997 8.23593 1.96997 7.99593 2.10997C7.75593 2.24997 7.57593 2.34997 7.37593 2.48997C7.17593 2.62997 6.71593 2.94997 6.37593 3.19997L6.10593 3.39997C5.70195 3.75151 5.31802 4.12543 4.95593 4.51997L4.83593 4.64997C4.49593 5.00997 4.16593 5.38997 3.83593 5.78997L3.76593 5.86997C1.75656 8.47414 0.666687 11.6707 0.666687 14.96C0.666687 18.2492 1.75656 21.4458 3.76593 24.05L3.82593 24.13C4.14593 24.53 4.47593 24.91 4.82593 25.28L4.92593 25.4C5.31764 25.8217 5.73156 26.2223 6.16593 26.6L6.41593 26.78C6.73669 27.0401 7.07045 27.2837 7.41593 27.51C7.61593 27.65 7.82593 27.77 8.03593 27.89C8.24593 28.01 8.50593 28.17 8.75593 28.3L9.47593 28.65C9.70593 28.75 9.94593 28.86 10.1959 28.95C10.4459 29.04 10.6859 29.14 10.9359 29.22C11.1859 29.3 11.4759 29.39 11.7459 29.46C12.0159 29.53 12.2159 29.59 12.4559 29.64C12.6959 29.69 13.1159 29.77 13.4559 29.82C13.7959 29.87 13.8459 29.89 14.0459 29.91C15.1293 30.0299 16.2226 30.0299 17.3059 29.91C17.5059 29.91 17.7059 29.85 17.8959 29.82C18.0859 29.79 18.5659 29.72 18.8959 29.64C19.2259 29.56 19.3759 29.53 19.6059 29.46C19.8359 29.39 20.1459 29.31 20.4159 29.22C20.6859 29.13 20.9159 29.05 21.1559 28.95C21.3959 28.85 21.6459 28.75 21.8759 28.65L22.5959 28.3C22.8459 28.17 23.0759 28.03 23.3159 27.89C23.5559 27.75 23.7359 27.65 23.9359 27.51C24.2814 27.2837 24.6152 27.0401 24.9359 26.78L25.1859 26.6C25.6114 26.2477 26.0186 25.8739 26.4059 25.48L26.5059 25.36C26.8559 24.99 27.1859 24.61 27.5059 24.21L27.5459 24.13ZM26.5459 22.13C25.9926 21.7429 25.4147 21.3922 24.8159 21.08C25.9626 17.1213 25.9626 12.9186 24.8159 8.95997C25.4134 8.66395 25.9912 8.32994 26.5459 7.95997C27.9356 10.0708 28.6763 12.5427 28.6763 15.07C28.6763 17.5972 27.9356 20.0691 26.5459 22.18V22.13ZM25.2259 23.81C24.9959 24.06 24.7559 24.3 24.5159 24.53L24.2059 24.81L23.5659 25.33L23.1259 25.66L22.5559 26.03L22.3559 26.15C23.0716 25.1757 23.666 24.1179 24.1259 23C24.5356 23.2177 24.9329 23.4581 25.3159 23.72L25.2259 23.81ZM8.22593 25.66L7.78593 25.33L7.14593 24.81L6.83593 24.53C6.59593 24.3 6.35593 24.06 6.12593 23.81L6.02593 23.7C6.40617 23.4452 6.8001 23.2116 7.20593 23C7.66755 24.1254 8.26534 25.19 8.98593 26.17L8.78593 26L8.22593 25.66ZM7.66593 15C7.66045 13.2204 7.8925 11.4481 8.35593 9.72997C10.3812 10.4761 12.5097 10.9045 14.6659 11V19C12.5118 19.0826 10.3834 19.4975 8.35593 20.23C7.89601 18.5248 7.66399 16.7661 7.66593 15ZM6.11593 6.20997C6.34593 5.95997 6.58593 5.71997 6.82593 5.48997L7.13593 5.20997L7.77593 4.68997L8.21593 4.35997L8.78593 3.99997L8.98593 3.87997C8.27599 4.84897 7.67881 5.89573 7.20593 6.99997C6.79623 6.78221 6.39895 6.54184 6.01593 6.27997L6.11593 6.20997ZM23.1159 4.35997L23.5559 4.68997L24.1959 5.20997L24.5059 5.48997C24.7459 5.71997 24.9859 5.95997 25.2159 6.20997L25.3159 6.31997C24.932 6.5682 24.5347 6.7952 24.1259 6.99997C23.6565 5.87838 23.0592 4.81468 22.3459 3.82997L22.5459 3.94997L23.1159 4.35997ZM23.6659 15C23.6714 16.7795 23.4394 18.5518 22.9759 20.27C20.9507 19.5238 18.8222 19.0954 16.6659 19V11C18.8201 10.9174 20.9485 10.5025 22.9759 9.76997C23.4358 11.4752 23.6679 13.2338 23.6659 15ZM16.6659 21C18.6021 21.0806 20.5145 21.4583 22.3359 22.12C21.0759 25.21 19.0359 27.37 16.6659 27.86V21ZM16.6659 8.99997V2.10997C19.0359 2.59997 21.0759 4.75997 22.3359 7.84997C20.5161 8.52187 18.6037 8.90974 16.6659 8.99997ZM14.6659 2.10997V8.99997C12.7281 8.90974 10.8158 8.52187 8.99593 7.84997C10.2559 4.75997 12.2959 2.59997 14.6659 2.10997ZM14.6659 21V27.86C12.2959 27.37 10.2559 25.21 8.99593 22.12C10.8174 21.4583 12.7297 21.0806 14.6659 21ZM4.79593 7.88997C5.35063 8.25994 5.92848 8.59395 6.52593 8.88997C5.37921 12.8486 5.37921 17.0513 6.52593 21.01C5.92714 21.3222 5.34926 21.6729 4.79593 22.06C3.40623 19.9491 2.66559 17.4772 2.66559 14.95C2.66559 12.4227 3.40623 9.95085 4.79593 7.83997V7.88997Z" fill="white"/>
</svg>
