<svg width="24" height="24" viewBox="0 0 24 24" fill="none" xmlns="http://www.w3.org/2000/svg">
<path d="M15.6 18C15.3627 18 15.1307 18.0704 14.9333 18.2022C14.736 18.3341 14.5822 18.5215 14.4913 18.7408C14.4005 18.9601 14.3768 19.2013 14.4231 19.4341C14.4694 19.6669 14.5836 19.8807 14.7515 20.0485C14.9193 20.2164 15.1331 20.3306 15.3659 20.3769C15.5987 20.4232 15.8399 20.3995 16.0592 20.3087C16.2785 20.2178 16.4659 20.064 16.5978 19.8667C16.7296 19.6693 16.8 19.4373 16.8 19.2C16.8 18.8817 16.6736 18.5765 16.4485 18.3515C16.2235 18.1264 15.9183 18 15.6 18ZM8.4 18H4.8C4.48174 18 4.17652 18.1264 3.95147 18.3515C3.72643 18.5765 3.6 18.8817 3.6 19.2C3.6 19.5183 3.72643 19.8235 3.95147 20.0485C4.17652 20.2736 4.48174 20.4 4.8 20.4H8.4C8.71826 20.4 9.02348 20.2736 9.24853 20.0485C9.47357 19.8235 9.6 19.5183 9.6 19.2C9.6 18.8817 9.47357 18.5765 9.24853 18.3515C9.02348 18.1264 8.71826 18 8.4 18ZM19.2 18C18.9627 18 18.7307 18.0704 18.5333 18.2022C18.336 18.3341 18.1822 18.5215 18.0913 18.7408C18.0005 18.9601 17.9768 19.2013 18.0231 19.4341C18.0694 19.6669 18.1836 19.8807 18.3515 20.0485C18.5193 20.2164 18.7331 20.3306 18.9659 20.3769C19.1987 20.4232 19.4399 20.3995 19.6592 20.3087C19.8785 20.2178 20.0659 20.064 20.1978 19.8667C20.3296 19.6693 20.4 19.4373 20.4 19.2C20.4 18.8817 20.2736 18.5765 20.0485 18.3515C19.8235 18.1264 19.5183 18 19.2 18ZM15.6 10.8C15.3627 10.8 15.1307 10.8704 14.9333 11.0022C14.736 11.1341 14.5822 11.3215 14.4913 11.5408C14.4005 11.7601 14.3768 12.0013 14.4231 12.2341C14.4694 12.4669 14.5836 12.6807 14.7515 12.8485C14.9193 13.0164 15.1331 13.1306 15.3659 13.1769C15.5987 13.2232 15.8399 13.1995 16.0592 13.1087C16.2785 13.0178 16.4659 12.864 16.5978 12.6667C16.7296 12.4693 16.8 12.2373 16.8 12C16.8 11.6817 16.6736 11.3765 16.4485 11.1515C16.2235 10.9264 15.9183 10.8 15.6 10.8ZM8.4 10.8H4.8C4.48174 10.8 4.17652 10.9264 3.95147 11.1515C3.72643 11.3765 3.6 11.6817 3.6 12C3.6 12.3183 3.72643 12.6235 3.95147 12.8485C4.17652 13.0736 4.48174 13.2 4.8 13.2H8.4C8.71826 13.2 9.02348 13.0736 9.24853 12.8485C9.47357 12.6235 9.6 12.3183 9.6 12C9.6 11.6817 9.47357 11.3765 9.24853 11.1515C9.02348 10.9264 8.71826 10.8 8.4 10.8ZM19.2 3.6C18.9627 3.6 18.7307 3.67038 18.5333 3.80224C18.336 3.93409 18.1822 4.12151 18.0913 4.34078C18.0005 4.56005 17.9768 4.80133 18.0231 5.03411C18.0694 5.26689 18.1836 5.48071 18.3515 5.64853C18.5193 5.81635 18.7331 5.93064 18.9659 5.97694C19.1987 6.02324 19.4399 5.99948 19.6592 5.90866C19.8785 5.81783 20.0659 5.66402 20.1978 5.46668C20.3296 5.26935 20.4 5.03734 20.4 4.8C20.4 4.48174 20.2736 4.17652 20.0485 3.95147C19.8235 3.72643 19.5183 3.6 19.2 3.6ZM19.2 10.8C18.9627 10.8 18.7307 10.8704 18.5333 11.0022C18.336 11.1341 18.1822 11.3215 18.0913 11.5408C18.0005 11.7601 17.9768 12.0013 18.0231 12.2341C18.0694 12.4669 18.1836 12.6807 18.3515 12.8485C18.5193 13.0164 18.7331 13.1306 18.9659 13.1769C19.1987 13.2232 19.4399 13.1995 19.6592 13.1087C19.8785 13.0178 20.0659 12.864 20.1978 12.6667C20.3296 12.4693 20.4 12.2373 20.4 12C20.4 11.6817 20.2736 11.3765 20.0485 11.1515C19.8235 10.9264 19.5183 10.8 19.2 10.8ZM24 3.6C24 2.64522 23.6207 1.72955 22.9456 1.05442C22.2705 0.379285 21.3548 0 20.4 0H3.6C2.64522 0 1.72955 0.379285 1.05442 1.05442C0.379285 1.72955 0 2.64522 0 3.6V6C0.00529273 6.88807 0.338653 7.74284 0.936 8.4C0.338653 9.05717 0.00529273 9.91193 0 10.8V13.2C0.00529273 14.0881 0.338653 14.9428 0.936 15.6C0.338653 16.2572 0.00529273 17.1119 0 18V20.4C0 21.3548 0.379285 22.2705 1.05442 22.9456C1.72955 23.6207 2.64522 24 3.6 24H20.4C21.3548 24 22.2705 23.6207 22.9456 22.9456C23.6207 22.2705 24 21.3548 24 20.4V18C23.9947 17.1119 23.6613 16.2572 23.064 15.6C23.6613 14.9428 23.9947 14.0881 24 13.2V10.8C23.9947 9.91193 23.6613 9.05717 23.064 8.4C23.6613 7.74284 23.9947 6.88807 24 6V3.6ZM21.6 20.4C21.6 20.7183 21.4736 21.0235 21.2485 21.2485C21.0235 21.4736 20.7183 21.6 20.4 21.6H3.6C3.28174 21.6 2.97652 21.4736 2.75147 21.2485C2.52643 21.0235 2.4 20.7183 2.4 20.4V18C2.4 17.6817 2.52643 17.3765 2.75147 17.1515C2.97652 16.9264 3.28174 16.8 3.6 16.8H20.4C20.7183 16.8 21.0235 16.9264 21.2485 17.1515C21.4736 17.3765 21.6 17.6817 21.6 18V20.4ZM21.6 13.2C21.6 13.5183 21.4736 13.8235 21.2485 14.0485C21.0235 14.2736 20.7183 14.4 20.4 14.4H3.6C3.28174 14.4 2.97652 14.2736 2.75147 14.0485C2.52643 13.8235 2.4 13.5183 2.4 13.2V10.8C2.4 10.4817 2.52643 10.1765 2.75147 9.95147C2.97652 9.72643 3.28174 9.6 3.6 9.6H20.4C20.7183 9.6 21.0235 9.72643 21.2485 9.95147C21.4736 10.1765 21.6 10.4817 21.6 10.8V13.2ZM21.6 6C21.6 6.31826 21.4736 6.62348 21.2485 6.84853C21.0235 7.07357 20.7183 7.2 20.4 7.2H3.6C3.28174 7.2 2.97652 7.07357 2.75147 6.84853C2.52643 6.62348 2.4 6.31826 2.4 6V3.6C2.4 3.28174 2.52643 2.97652 2.75147 2.75147C2.97652 2.52643 3.28174 2.4 3.6 2.4H20.4C20.7183 2.4 21.0235 2.52643 21.2485 2.75147C21.4736 2.97652 21.6 3.28174 21.6 3.6V6ZM15.6 3.6C15.3627 3.6 15.1307 3.67038 14.9333 3.80224C14.736 3.93409 14.5822 4.12151 14.4913 4.34078C14.4005 4.56005 14.3768 4.80133 14.4231 5.03411C14.4694 5.26689 14.5836 5.48071 14.7515 5.64853C14.9193 5.81635 15.1331 5.93064 15.3659 5.97694C15.5987 6.02324 15.8399 5.99948 16.0592 5.90866C16.2785 5.81783 16.4659 5.66402 16.5978 5.46668C16.7296 5.26935 16.8 5.03734 16.8 4.8C16.8 4.48174 16.6736 4.17652 16.4485 3.95147C16.2235 3.72643 15.9183 3.6 15.6 3.6ZM8.4 3.6H4.8C4.48174 3.6 4.17652 3.72643 3.95147 3.95147C3.72643 4.17652 3.6 4.48174 3.6 4.8C3.6 5.11826 3.72643 5.42348 3.95147 5.64853C4.17652 5.87357 4.48174 6 4.8 6H8.4C8.71826 6 9.02348 5.87357 9.24853 5.64853C9.47357 5.42348 9.6 5.11826 9.6 4.8C9.6 4.48174 9.47357 4.17652 9.24853 3.95147C9.02348 3.72643 8.71826 3.6 8.4 3.6Z" fill="white"/>
</svg>
