<svg width="24" height="24" viewBox="0 0 24 24" fill="none" xmlns="http://www.w3.org/2000/svg">
<path d="M22.9091 15.2727H20.7273V12C20.7273 11.7107 20.6123 11.4332 20.4078 11.2286C20.2032 11.024 19.9257 10.9091 19.6364 10.9091H13.0909V8.72727H15.2727C15.5621 8.72727 15.8395 8.61234 16.0441 8.40775C16.2487 8.20317 16.3636 7.92569 16.3636 7.63636V1.09091C16.3636 0.801582 16.2487 0.524105 16.0441 0.31952C15.8395 0.114935 15.5621 0 15.2727 0H8.72727C8.43795 0 8.16047 0.114935 7.95588 0.31952C7.7513 0.524105 7.63636 0.801582 7.63636 1.09091V7.63636C7.63636 7.92569 7.7513 8.20317 7.95588 8.40775C8.16047 8.61234 8.43795 8.72727 8.72727 8.72727H10.9091V10.9091H4.36364C4.07431 10.9091 3.79683 11.024 3.59225 11.2286C3.38766 11.4332 3.27273 11.7107 3.27273 12V15.2727H1.09091C0.801582 15.2727 0.524105 15.3877 0.31952 15.5922C0.114935 15.7968 0 16.0743 0 16.3636V22.9091C0 23.1984 0.114935 23.4759 0.31952 23.6805C0.524105 23.8851 0.801582 24 1.09091 24H7.63636C7.92569 24 8.20317 23.8851 8.40775 23.6805C8.61234 23.4759 8.72727 23.1984 8.72727 22.9091V16.3636C8.72727 16.0743 8.61234 15.7968 8.40775 15.5922C8.20317 15.3877 7.92569 15.2727 7.63636 15.2727H5.45455V13.0909H18.5455V15.2727H16.3636C16.0743 15.2727 15.7968 15.3877 15.5922 15.5922C15.3877 15.7968 15.2727 16.0743 15.2727 16.3636V22.9091C15.2727 23.1984 15.3877 23.4759 15.5922 23.6805C15.7968 23.8851 16.0743 24 16.3636 24H22.9091C23.1984 24 23.4759 23.8851 23.6805 23.6805C23.8851 23.4759 24 23.1984 24 22.9091V16.3636C24 16.0743 23.8851 15.7968 23.6805 15.5922C23.4759 15.3877 23.1984 15.2727 22.9091 15.2727ZM6.54545 17.4545V21.8182H2.18182V17.4545H6.54545ZM9.81818 6.54545V2.18182H14.1818V6.54545H9.81818ZM21.8182 21.8182H17.4545V17.4545H21.8182V21.8182Z" fill="white"/>
</svg>
